<?xml version="1.0" encoding="utf-8"?>
<!-- Generator: Adobe Illustrator 16.0.0, SVG Export Plug-In . SVG Version: 6.00 Build 0)  -->
<!DOCTYPE svg PUBLIC "-//W3C//DTD SVG 1.1//EN" "http://www.w3.org/Graphics/SVG/1.1/DTD/svg11.dtd">
<svg version="1.1" id="레이어_1" xmlns="http://www.w3.org/2000/svg" xmlns:xlink="http://www.w3.org/1999/xlink" x="0px"
	 y="0px" width="555px" height="90.342px" viewBox="0 0 555 90.342" enable-background="new 0 0 555 90.342" xml:space="preserve">
<path fill="#FFFFFF" fill-rule="evenodd" clip-rule="evenodd" d="M39.763,55.117c1.165-0.482,1.199-1.365,1.466-2.047
	c2.286-5.834,4.53-11.684,6.787-17.529c1.63-4.221,3.258-8.441,4.892-12.662c0.283-0.729,0.588-1.451,0.888-2.176
	c1.068-2.586,5.167-2.77,6.637-0.24c0.434,0.746,0.729,1.578,1.043,2.387c3.896,10.063,7.779,20.13,11.689,30.187
	c0.269,0.692,0.315,1.558,1.09,1.954c0.745-0.101,0.768-0.683,0.836-1.172c0.431-3.102,0.827-6.207,1.251-9.309
	c0.779-5.69,1.577-11.378,2.354-17.068c0.271-1.981,0.494-3.97,0.76-5.952c0.127-0.948,0.314-1.888,0.458-2.833
	c0.531-3.506,3.588-3.732,5.968-2.472c1.032,0.546,1.382,1.569,1.343,2.659c-0.049,1.389-0.172,2.781-0.363,4.158
	c-0.967,6.98-1.964,13.957-2.956,20.935c-1.102,7.752-2.208,15.503-3.316,23.255c-0.234,1.636-0.434,3.279-0.752,4.9
	c-0.354,1.801-1.724,3.043-3.326,3.176c-1.456,0.121-2.949-0.822-3.711-2.392c-0.303-0.625-0.53-1.287-0.782-1.937
	c-4.532-11.682-9.061-23.364-13.6-35.043c-0.303-0.781-0.436-1.681-1.186-2.19c-1.072,0.433-1.093,1.423-1.389,2.188
	c-3.172,8.197-6.305,16.408-9.45,24.615c-1.37,3.576-2.736,7.152-4.123,10.721c-0.282,0.728-0.621,1.437-0.985,2.127
	c-0.734,1.389-2.032,1.865-3.479,1.926c-1.738,0.074-2.969-0.877-3.338-2.668c-0.403-1.957-0.666-3.945-0.944-5.928
	c-0.931-6.633-1.833-13.27-2.762-19.903c-1.219-8.702-2.452-17.401-3.678-26.103c-0.048-0.344-0.098-0.69-0.117-1.037
	c-0.149-2.799,1.582-4.453,4.37-4.145c1.205,0.134,2.15,0.703,2.604,1.887c0.185,0.482,0.352,0.986,0.426,1.496
	c0.842,5.769,1.669,11.539,2.49,17.311c0.845,5.943,1.676,11.89,2.526,17.832C39.432,54.353,39.602,54.662,39.763,55.117z"/>
<path fill="#FFFFFF" fill-rule="evenodd" clip-rule="evenodd" d="M126.37,15.473c10.087,0.116,17.652,4.771,23.314,12.821
	c8.598,12.225,7.484,34.553-11.609,44.229c-4.138,2.098-8.591,2.683-13.188,2.535c-13.506-0.436-24.241-11.371-26.494-23.463
	c-1.451-7.788-0.517-15.309,3.751-22.135c4.283-6.852,10.226-11.586,18.275-13.289C122.365,15.759,124.384,15.697,126.37,15.473z
	 M105.06,42.708c0.081,10.777,3.439,17.151,10.156,21.615c6.913,4.594,16.388,4.295,23.072-0.609
	c7.493-5.498,10.658-14.186,8.609-23.82c-1.036-4.869-3.786-8.705-7.472-11.951c-7.302-6.43-18.731-6.314-25.935-0.277
	C107.972,32.291,104.973,38.103,105.06,42.708z"/>
<path fill="#FFFFFF" fill-rule="evenodd" clip-rule="evenodd" d="M335.063,46.489c-0.06,1.264-0.141,2.204-0.143,3.145
	c-0.012,6.702,0,13.405-0.014,20.108c-0.003,0.955,0.004,1.93-0.18,2.858c-0.37,1.866-1.799,2.802-3.881,2.691
	c-1.954-0.104-3.069-1.104-3.297-3.028c-0.082-0.688-0.061-1.391-0.061-2.087c-0.003-16.452-0.003-32.905,0-49.358
	c0-0.695-0.022-1.398,0.054-2.087c0.231-2.089,1.344-3.077,3.461-3.118c0.346-0.006,0.693,0.04,1.039,0.079
	c1.49,0.167,2.379,1.044,2.666,2.463c0.171,0.844,0.193,1.728,0.196,2.593c0.018,4.963,0,9.925,0.018,14.887
	c0.004,0.94-0.176,1.917,0.396,2.961c0.409,0.074,0.899,0.244,1.39,0.244c8.27,0.018,16.54,0.018,24.81,0.006
	c0.512,0,1.023-0.117,1.464-0.172c0.832-0.872,0.581-1.878,0.585-2.805c0.025-4.963,0.011-9.924,0.016-14.887
	c0.001-0.783-0.016-1.57,0.059-2.348c0.18-1.874,1.117-2.806,3.005-2.974c0.598-0.054,1.219-0.005,1.813,0.092
	c1.263,0.204,2.003,1.026,2.244,2.237c0.151,0.761,0.182,1.557,0.182,2.336c0.011,16.715,0.01,33.428,0.004,50.143
	c-0.001,0.694-0.022,1.396-0.128,2.082c-0.226,1.47-1.066,2.424-2.499,2.627c-0.835,0.117-1.749,0.057-2.565-0.16
	c-1.183-0.313-1.923-1.178-2.032-2.443c-0.074-0.865-0.08-1.738-0.081-2.608c-0.007-6.79,0.001-13.58-0.007-20.37
	c-0.004-3.204-0.015-3.217-3.136-3.22c-7.486-0.008-14.973-0.006-22.459,0.002C337.123,46.378,336.266,46.441,335.063,46.489z"/>
<path fill="#FFFFFF" fill-rule="evenodd" clip-rule="evenodd" d="M391.937,67.247c1.063,0.684,2.045,0.476,2.981,0.479
	c5.92,0.02,11.841,0.005,17.761,0.016c0.869,0.001,1.751-0.009,2.603,0.13c1.71,0.279,2.875,1.525,3.053,3.123
	c0.182,1.641-0.842,3.295-2.545,3.81c-0.896,0.271-1.883,0.325-2.829,0.329c-5.746,0.029-11.492,0.004-17.238,0.021
	c-2.437,0.006-4.873,0.064-7.31,0.107c-2.539,0.045-4.115-1.357-4.296-3.869c-0.05-0.693-0.029-1.393-0.029-2.089
	c-0.002-16.106-0.002-32.214,0.002-48.321c0-0.869-0.027-1.748,0.082-2.607c0.229-1.799,1.442-3.002,3.231-3.233
	c0.773-0.101,1.563-0.097,2.346-0.098c7.661-0.007,15.323-0.009,22.984,0.003c0.868,0,1.752,0.002,2.601,0.156
	c1.823,0.33,3.094,1.959,3.009,3.719c-0.082,1.707-1.291,3.053-3.108,3.346c-0.768,0.123-1.562,0.106-2.344,0.107
	c-5.485,0.009-10.97,0.006-16.455,0.006c-0.609,0-1.219-0.005-1.828,0.001c-2.856,0.028-2.908,0.066-2.916,2.934
	c-0.014,4.44-0.004,8.881-0.004,13.321c0,0.262-0.006,0.522,0.004,0.783c0.069,1.836,0.274,2.089,2.163,2.098
	c6.182,0.027,12.364,0.013,18.546,0.016c0.783,0,1.568-0.021,2.35,0.02c0.518,0.027,1.047,0.087,1.541,0.232
	c1.701,0.502,2.744,1.963,2.703,3.71c-0.036,1.57-1.119,2.988-2.755,3.387c-0.831,0.202-1.724,0.207-2.589,0.21
	c-6.182,0.016-12.363,0.006-18.545,0.012c-0.782,0.002-1.569,0.008-2.347,0.086c-0.58,0.058-0.923,0.469-1,1.042
	c-0.058,0.43-0.066,0.868-0.067,1.302c-0.004,4.615-0.013,9.23,0.011,13.844C391.704,66.045,391.866,66.712,391.937,67.247z"/>
<path fill="#FFFFFF" fill-rule="evenodd" clip-rule="evenodd" d="M173.314,59.929c0,3.393,0.009,6.785-0.006,10.176
	c-0.004,0.781-0.013,1.574-0.155,2.338c-0.301,1.615-1.174,2.424-2.823,2.593c-0.675,0.069-1.387-0.021-2.06-0.155
	c-1.244-0.25-1.965-1.104-2.188-2.309c-0.141-0.763-0.132-1.559-0.132-2.34c-0.006-16.699-0.006-33.398-0.002-50.098
	c0-0.607-0.004-1.221,0.071-1.822c0.2-1.59,1.028-2.518,2.605-2.848c0.673-0.141,1.381-0.148,2.074-0.152
	c6.783-0.037,13.566-0.094,20.35-0.069c3.09,0.011,6.017,0.836,8.764,2.244c3.938,2.019,6.063,5.4,6.883,9.614
	c0.658,3.384,0.344,6.771-0.7,10.051c-1.631,5.119-5.257,8.1-10.429,9.152c-2.107,0.429-4.258,0.537-6.467,0.423
	c-4.685-0.243-9.389-0.108-14.085-0.073c-1.317,0.01-1.656,0.391-1.669,1.795c-0.038,3.827-0.013,7.654-0.013,11.48
	C173.325,59.929,173.319,59.929,173.314,59.929z M173.544,22.958c-0.095,0.874-0.212,1.47-0.215,2.066
	c-0.017,3.914-0.012,7.829-0.007,11.743c0,0.434,0.011,0.871,0.069,1.301c0.099,0.725,0.449,1.086,1.176,1.165
	c0.603,0.065,1.215,0.069,1.823,0.071c3.305,0.006,6.612,0.063,9.916-0.018c2.166-0.053,4.345-0.188,6.485-0.502
	c3.01-0.443,5.114-2.148,5.938-5.138c0.319-1.154,0.447-2.396,0.447-3.597c0.002-3.469-1.764-5.664-5.133-6.642
	c-1.863-0.541-3.773-0.614-5.686-0.63c-4.088-0.033-8.176-0.021-12.264-0.005C175.327,22.777,174.561,22.88,173.544,22.958z"/>
<path fill="#FFFFFF" fill-rule="evenodd" clip-rule="evenodd" d="M266.937,48.837c-0.041-16.311,9.078-27.733,21.964-30.908
	c6.217-1.531,12.266-0.963,18.118,1.609c0.786,0.346,1.58,0.777,2.216,1.342c1.81,1.608,1.458,4.591-0.631,5.783
	c-1.158,0.661-2.314,0.445-3.515,0.014c-1.796-0.645-3.595-1.367-5.456-1.73c-12.659-2.471-23.538,6.52-25.158,17.442
	c-1.41,9.515,1.893,17.032,9.865,22.196c7.219,4.676,14.787,4.447,22.243,0.219c0.528-0.299,1-0.7,1.529-0.998
	c1.721-0.965,3.582-0.655,4.697,0.754c1.184,1.496,1.114,3.627-0.264,4.996c-0.607,0.605-1.361,1.08-2.097,1.537
	c-11.099,6.879-25.688,5.286-35.244-4.389C269.605,61.037,267.067,54.086,266.937,48.837z"/>
<path fill="#FFFFFF" fill-rule="evenodd" clip-rule="evenodd" d="M430.934,46.242c0.159-14.735,9.892-25.312,21.969-28.301
	c6.216-1.537,12.266-0.986,18.123,1.581c0.788,0.345,1.576,0.774,2.229,1.325c1.311,1.107,1.594,2.784,0.858,4.255
	c-0.792,1.581-2.394,2.321-4.159,1.852c-0.668-0.178-1.294-0.509-1.944-0.755c-7.661-2.907-14.872-2.166-21.478,2.805
	c-4.438,3.34-7.18,7.838-8.021,13.307c-1.436,9.326,1.721,16.913,9.602,22.101c7.361,4.845,15.07,4.687,22.692,0.298
	c0.526-0.303,0.99-0.719,1.525-1.004c1.604-0.853,3.406-0.511,4.482,0.809c1.109,1.363,1.205,3.197,0.142,4.592
	c-0.411,0.54-0.962,1.01-1.531,1.389c-5.563,3.709-11.699,5.343-18.344,4.676c-8.705-0.875-15.666-4.941-20.813-12.015
	C432.87,58.488,430.94,52.173,430.934,46.242z"/>
<path fill="#FFFFFF" fill-rule="evenodd" clip-rule="evenodd" d="M235.775,43.876c0.53,1.408,1.369,2.195,2.069,3.069
	c4.955,6.183,9.934,12.349,14.891,18.53c0.597,0.744,1.212,1.502,1.646,2.344c0.89,1.721,0.394,3.247-1.333,4.53
	c-1.572,1.169-3.172,1.206-4.531,0.022c-0.586-0.51-1.087-1.127-1.576-1.736c-5.943-7.4-11.876-14.809-17.813-22.214
	c-0.218-0.271-0.446-0.536-0.653-0.815c-1.874-2.526-1.893-4.668,0.071-7.123c4.133-5.169,8.311-10.301,12.471-15.447
	c1.971-2.438,3.944-4.874,5.92-7.308c0.384-0.474,0.776-0.939,1.179-1.396c0.963-1.093,2.188-1.466,3.543-1.01
	c1.45,0.489,2.632,1.376,3.057,2.958c0.213,0.793,0.045,1.576-0.391,2.258c-0.469,0.73-0.991,1.43-1.535,2.107
	c-5.016,6.246-10.043,12.482-15.063,18.727C237.079,42.179,236.454,43.004,235.775,43.876z"/>
<path fill="#FFFFFF" fill-rule="evenodd" clip-rule="evenodd" d="M500.387,44.071c-0.09-1.396,0.385-2.392,1.125-3.3
	c1.266-1.553,2.512-3.12,3.771-4.678c4.927-6.095,9.853-12.189,14.784-18.28c0.492-0.608,0.999-1.21,1.55-1.765
	c0.964-0.971,2.16-1.096,3.392-0.691c1.105,0.363,1.985,1.095,2.597,2.088c0.602,0.975,0.561,2.014-0.006,2.977
	c-0.438,0.746-0.974,1.441-1.518,2.119c-5.068,6.315-10.147,12.623-15.225,18.932c-2.286,2.842-2.236,2.453-0.041,5.189
	c5.015,6.247,10.047,12.48,15.06,18.729c0.598,0.745,1.209,1.501,1.665,2.334c0.949,1.732,0.515,3.25-1.184,4.557
	c-1.649,1.27-3.303,1.289-4.734,0.001c-0.515-0.463-0.966-1.005-1.4-1.546c-6.05-7.539-12.086-15.088-18.14-22.623
	C501.078,46.863,500.19,45.592,500.387,44.071z"/>
<path fill="#FFFFFF" fill-rule="evenodd" clip-rule="evenodd" d="M498.82,45.2c0,8.349,0.004,16.698-0.006,25.048
	c-0.001,0.867,0.011,1.752-0.146,2.598c-0.295,1.586-1.267,2.395-2.87,2.531c-0.431,0.037-0.871,0.037-1.302,0
	c-1.723-0.15-2.689-1.005-3.001-2.725c-0.123-0.679-0.136-1.385-0.137-2.078c-0.007-16.96-0.005-33.92-0.004-50.88
	c0-0.348-0.003-0.696,0.022-1.043c0.229-3.066,3.083-4.609,5.867-3.168c0.836,0.433,1.297,1.185,1.435,2.069
	c0.132,0.854,0.135,1.731,0.136,2.599C498.824,28.5,498.82,36.85,498.82,45.2z"/>
<path fill="#FFFFFF" fill-rule="evenodd" clip-rule="evenodd" d="M225.55,45.291c-0.001,8.348,0.002,16.696-0.005,25.045
	c0,0.868,0.019,1.748-0.109,2.602c-0.195,1.301-1.133,2.2-2.416,2.389c-0.596,0.086-1.218,0.092-1.819,0.037
	c-1.638-0.146-2.561-0.939-2.844-2.547c-0.165-0.936-0.188-1.902-0.19-2.855c-0.019-5.045-0.011-10.088-0.011-15.132
	c0-11.393-0.005-22.784,0.009-34.177c0.002-1.039,0.035-2.092,0.198-3.115c0.215-1.342,1.064-2.153,2.438-2.342
	c0.43-0.059,0.867-0.104,1.299-0.096c2.321,0.043,3.317,1.001,3.43,3.319c0.042,0.868,0.021,1.739,0.021,2.608
	C225.551,29.115,225.551,37.203,225.55,45.291z"/>
<path fill="#FFFFFF" fill-rule="evenodd" clip-rule="evenodd" d="M184.764,55.279c-0.043-2.658,2.023-4.251,4.55-3.612
	c1.062,0.269,1.838,0.929,2.524,1.747c4.248,5.055,8.507,10.103,12.759,15.154c0.224,0.266,0.433,0.546,0.626,0.834
	c0.718,1.072,1.077,2.195,0.348,3.408c-0.799,1.326-1.901,2.297-3.492,2.422c-0.557,0.045-1.205-0.201-1.701-0.5
	c-0.581-0.352-1.1-0.854-1.544-1.377c-4.225-4.961-8.429-9.939-12.636-14.918C185.402,57.496,184.707,56.501,184.764,55.279z"/>
</svg>
