<svg width="27" height="22" viewBox="0 0 27 22" fill="none" xmlns="http://www.w3.org/2000/svg">
<path id="Vector" d="M16.0862 16V18.5C16.0862 19.163 15.8213 19.7989 15.3498 20.2678C14.8782 20.7366 14.2387 21 13.5718 21H3.51437C2.84752 21 2.20798 20.7366 1.73644 20.2678C1.26491 19.7989 1 19.163 1 18.5V3.5C1 2.83696 1.26491 2.20107 1.73644 1.73223C2.20798 1.26339 2.84752 1 3.51437 1H13.069C14.4575 1 16.0862 2.11937 16.0862 3.5V6M20.1092 16L25.1379 11L20.1092 6M8.04023 11H24.1322" stroke="#C4C4C4" stroke-width="2" stroke-linecap="round" stroke-linejoin="round"/>
</svg>
